# xmcd
#
# Track frame offsets: 
#        150
#        41798
#        59670
#        74953
#        103678
#        113345
#        133525
#        156581
#        171079
#        189797
#        215093
#        240843
#        251314
#        265944
#        284619
#
# Disc length: 3960 seconds
#
# Revision: 0
# Processed by: cddbd v1.5.2PL0 Copyright (c) Steve Scherf et al.
# Submitted via: ExactAudioCopy v0.95a5
#
DISCID=e20f760f
DTITLE=Kulisz  Projekt - Ciemnogranie
DYEAR=2010
DGENRE=Blues
TTITLE0=Intro Rozbitkowie
TTITLE1=Rolling Sones
TTITLE2=Ciemnogranie
TTITLE3=Szklana kula
TTITLE4=Fatalny druh
TTITLE5=Kawa i pet
TTITLE6=Nie mówcie ju¿ nic
TTITLE7=Centro Przebudzenie
TTITLE8=Nowa historia
TTITLE9=Giernatural
TTITLE10=Wszystko mam
TTITLE11=Brak s³ów
TTITLE12=Nie martwe s³owo
TTITLE13=Spróbuj
TTITLE14=Entro Indibang
EXTD=
EXTT0=
EXTT1=
EXTT2=
EXTT3=
EXTT4=
EXTT5=
EXTT6=
EXTT7=
EXTT8=
EXTT9=
EXTT10=
EXTT11=
EXTT12=
EXTT13=
EXTT14=
PLAYORDER=
